<?xml version="1.0" standalone="no"?>
<!DOCTYPE svg PUBLIC "-//W3C//DTD SVG 20010904//EN"
 "http://www.w3.org/TR/2001/REC-SVG-20010904/DTD/svg10.dtd">
<svg version="1.0" xmlns="http://www.w3.org/2000/svg"
 width="512.000000pt" height="512.000000pt" viewBox="0 0 512.000000 512.000000"
 preserveAspectRatio="xMidYMid meet">
<metadata>
Created by potrace 1.11, written by Peter Selinger 2001-2013
</metadata>
<g transform="translate(0.000000,512.000000) scale(0.100000,-0.100000)"
fill="#000000" stroke="none">
<path d="M2445 5070 c-49 -28 -121 -69 -160 -90 -38 -20 -158 -86 -265 -145
-107 -60 -278 -154 -380 -210 -102 -56 -293 -162 -425 -235 -132 -73 -265
-146 -295 -163 -53 -29 -289 -159 -395 -218 -27 -15 -151 -83 -275 -151 -153
-85 -229 -132 -237 -149 -10 -19 -13 -276 -13 -1149 0 -873 3 -1130 13 -1149
8 -17 134 -92 427 -253 510 -281 1023 -565 1070 -591 19 -11 60 -34 90 -50 30
-17 250 -138 487 -269 238 -131 446 -241 462 -244 24 -5 59 10 198 87 92 51
187 103 211 116 77 42 126 69 217 120 50 28 115 64 145 80 30 17 75 41 100 55
60 34 531 293 600 331 30 17 109 60 175 97 128 71 204 113 300 166 469 256
601 333 612 355 10 19 13 277 13 1155 0 1063 -1 1133 -17 1153 -15 17 -171
105 -803 453 -30 17 -74 41 -97 54 -109 61 -129 72 -503 277 -30 17 -134 74
-230 127 -96 54 -206 115 -245 135 -38 21 -86 47 -105 58 -269 152 -529 290
-554 293 -24 4 -51 -7 -121 -46z m457 -321 c181 -100 325 -185 321 -190 -4 -4
-69 -41 -143 -82 -175 -96 -669 -369 -925 -510 -110 -60 -220 -121 -245 -135
-237 -132 -921 -508 -946 -520 -30 -14 -35 -13 -66 5 -18 11 -58 34 -88 50
-30 17 -75 41 -100 55 -25 14 -77 43 -116 64 -194 106 -324 179 -324 184 0 3
26 19 57 35 31 17 93 51 137 76 45 25 113 63 151 83 64 35 230 126 745 411
102 56 211 116 243 134 31 17 81 44 110 60 428 239 835 460 846 461 7 0 161
-82 343 -181z m607 -336 c47 -25 102 -55 121 -66 19 -11 60 -33 90 -50 30 -16
75 -41 100 -56 25 -14 72 -40 105 -57 32 -18 61 -36 62 -41 2 -5 -25 -24 -59
-42 -35 -18 -76 -40 -93 -50 -26 -15 -97 -54 -415 -229 -25 -14 -108 -60 -185
-102 -77 -42 -272 -150 -434 -239 -161 -89 -328 -181 -370 -205 -42 -24 -101
-57 -133 -74 -31 -16 -176 -96 -322 -177 -190 -104 -272 -145 -286 -140 -11 3
-93 47 -182 97 -90 50 -197 109 -238 131 -41 23 -92 51 -114 63 l-38 22 43 25
c69 39 198 111 269 149 131 71 1631 899 1840 1016 69 39 131 71 139 71 8 1 53
-20 100 -46z m971 -535 c163 -90 312 -172 333 -183 20 -11 37 -22 37 -25 0 -3
-17 -14 -37 -25 -21 -11 -71 -39 -111 -62 -41 -24 -75 -43 -77 -43 -2 0 -59
-31 -127 -69 -68 -37 -235 -130 -373 -206 -137 -76 -270 -149 -295 -163 -43
-24 -223 -123 -944 -521 -208 -115 -333 -178 -340 -172 -6 4 -49 29 -96 54
-47 25 -194 106 -327 180 l-243 134 88 48 c48 27 103 57 121 68 19 10 215 118
435 239 221 122 455 251 521 288 66 37 152 84 190 105 39 21 156 85 260 143
105 58 215 118 245 135 30 16 89 49 130 72 41 23 82 45 90 49 8 4 58 31 110
61 52 30 100 54 105 54 6 1 143 -72 305 -161z m-4062 -490 c232 -128 273 -151
370 -204 26 -14 52 -30 57 -34 6 -5 9 -201 8 -557 -1 -358 2 -557 9 -575 11
-29 27 -40 138 -100 36 -20 121 -67 190 -105 69 -39 152 -85 185 -103 33 -18
111 -62 174 -98 136 -77 178 -86 215 -49 l26 26 0 521 0 520 68 -36 c37 -21
126 -70 197 -109 72 -40 162 -89 200 -110 39 -21 95 -52 125 -70 30 -17 63
-34 73 -38 9 -3 18 -12 18 -19 1 -7 2 -464 3 -1014 l1 -1002 -30 15 c-16 9
-311 171 -655 361 -344 190 -690 381 -770 425 -80 43 -167 92 -195 107 -27 15
-93 51 -145 80 -52 29 -114 63 -137 76 -22 12 -116 64 -207 114 l-166 92 0
1009 c0 555 2 1009 5 1009 3 0 112 -59 243 -132z m4532 -877 l0 -1009 -167
-93 c-93 -51 -186 -102 -208 -115 -34 -18 -621 -342 -755 -416 -201 -111 -608
-335 -862 -476 -170 -94 -309 -167 -311 -164 -2 4 -3 459 -2 1011 l0 1004 50
28 c28 15 66 36 85 47 19 11 103 57 185 102 83 46 193 106 245 135 90 50 810
447 915 505 28 15 68 38 90 50 22 12 58 31 80 44 22 12 74 40 115 63 41 22
176 97 300 166 124 69 228 126 233 126 4 1 7 -453 7 -1008z m-3757 450 c89
-49 209 -115 267 -148 58 -32 118 -64 133 -72 l27 -14 0 -479 0 -479 -62 35
c-35 19 -169 93 -298 165 l-235 130 0 475 c0 262 1 476 3 476 1 0 75 -40 165
-89z"/>
</g>
</svg>
